<svg xmlns="http://www.w3.org/2000/svg" viewBox="0 0 1200 120" fill="none">
  <defs>
    <linearGradient id="bg" x1="0%" y1="0%" x2="100%" y2="100%">
      <stop offset="0%" stop-color="#0d1117"/>
      <stop offset="50%" stop-color="#1a1a20"/>
      <stop offset="100%" stop-color="#0d1117"/>
    </linearGradient>
    <linearGradient id="accent" x1="0%" y1="0%" x2="100%" y2="0%">
      <stop offset="0%" stop-color="#6366f1" stop-opacity="0"/>
      <stop offset="50%" stop-color="#6366f1" stop-opacity="0.15"/>
      <stop offset="100%" stop-color="#6366f1" stop-opacity="0"/>
    </linearGradient>
    <linearGradient id="line" x1="0%" y1="0%" x2="100%" y2="0%">
      <stop offset="0%" stop-color="#6366f1" stop-opacity="0"/>
      <stop offset="20%" stop-color="#6366f1" stop-opacity="0.6"/>
      <stop offset="80%" stop-color="#6366f1" stop-opacity="0.6"/>
      <stop offset="100%" stop-color="#6366f1" stop-opacity="0"/>
    </linearGradient>
  </defs>

  <!-- Background -->
  <rect width="1200" height="120" fill="url(#bg)"/>
  <rect y="90" width="1200" height="30" fill="url(#accent)"/>

  <!-- Decorative dots -->
  <circle cx="304" cy="26" r="1" fill="#6366f1" opacity="0.03"/>
<circle cx="408" cy="42" r="2" fill="#6366f1" opacity="0.04"/>
<circle cx="512" cy="58" r="3" fill="#6366f1" opacity="0.05"/>
<circle cx="616" cy="74" r="1" fill="#6366f1" opacity="0.06"/>
<circle cx="720" cy="90" r="2" fill="#6366f1" opacity="0.07"/>
<circle cx="824" cy="106" r="3" fill="#6366f1" opacity="0.03"/>
<circle cx="928" cy="22" r="1" fill="#6366f1" opacity="0.04"/>
<circle cx="232" cy="38" r="2" fill="#6366f1" opacity="0.05"/>
<circle cx="336" cy="54" r="3" fill="#6366f1" opacity="0.06"/>
<circle cx="440" cy="70" r="1" fill="#6366f1" opacity="0.07"/>
<circle cx="544" cy="86" r="2" fill="#6366f1" opacity="0.03"/>
<circle cx="648" cy="102" r="3" fill="#6366f1" opacity="0.04"/>


  <!-- Accent line -->
  <line x1="0" y1="118" x2="1200" y2="118" stroke="url(#line)" stroke-width="2"/>

  <!-- Icon -->
  <g color="#6366f1">
    <g transform="translate(78,32) scale(0.85)" opacity="0.12">
      <rect x="0" y="0" width="60" height="50" rx="3" fill="none" stroke="currentColor" stroke-width="2.5"/>
      <line x1="15" y1="0" x2="15" y2="50" stroke="currentColor" stroke-width="1.5"/>
      <line x1="20" y1="12" x2="45" y2="12" stroke="currentColor" stroke-width="2"/>
      <line x1="20" y1="22" x2="50" y2="22" stroke="currentColor" stroke-width="2"/>
      <line x1="20" y1="32" x2="38" y2="32" stroke="currentColor" stroke-width="2"/>
      <line x1="20" y1="42" x2="48" y2="42" stroke="currentColor" stroke-width="2"/>
    </g>
  </g>

  <!-- Title -->
  <text x="600" y="52" font-family="system-ui,-apple-system,Segoe UI,sans-serif" font-size="32" font-weight="700" fill="#e6edf3" text-anchor="middle" letter-spacing="1">Doom Emacs Setup</text>

  <!-- Subtitle -->
  <text x="600" y="78" font-family="system-ui,-apple-system,Segoe UI,sans-serif" font-size="14" fill="#8b949e" text-anchor="middle" letter-spacing="0.5">Personal Doom Emacs configuration</text>
</svg>